<svg xmlns="http://www.w3.org/2000/svg" width="500" height="500" viewBox="0 0 2000 2000" xml:space="preserve"><path fill="#EF6722" d="m527 1243 .016-45H1067V793L932 658H347l.013 630.013 135 135.001L1427 1423l.016-180H527zm0-405h360v180H527V838z"/><path fill="#FFF" d="M1112 1018h360v405h180V982.29L1507.709 838H1112zM1067 736.31V397.29l-135-135v339.02z"/><path fill="#FFFDFD" d="M472 1538h100v25h-75v30h75v70H472v-25h75v-20h-75zM597 1538v175h25v-50h75v-125H597zm75 100h-50v-75h50v75zM847 1538h100v125h-25v-100h-50v100h-25z"/><path fill="#EF6722" d="M1427 1538h100v125h-25v-100h-50v100h-25zM1127 1538v25h75v20h-75v80h100v-125h-100zm75 100h-50v-30h50v30zM1302 1538v25h75v20h-75v80h100v-125h-100zm75 100h-50v-30h50v30zM1652 1663v-185h-25v60h-75v125h100zm-75-100h50v75h-50v-75zM1252 1478h25v185h-25zM1152 1478v40h50v-40h-50zm37 28h-25v-16h25v16zM1002 1663h25v-100h50v100h25v-100l-25-25h-50v-34.958L1002 1478z"/><path fill="#FFF" d="m372 1638 .001-20H447v-60.813L428.296 1538H347v106.354L365.896 1663H447v-25h-75zm0-75h50v30h-50v-30zM747 1638l.001-20H822v-60.813L803.296 1538H722v106.354L740.896 1663H822v-25h-75zm0-75h50v30h-50v-30z"/></svg>