<?xml version="1.0" encoding="UTF-8"?>
<svg width="24px" height="24px" viewBox="0 0 24 24" version="1.1" xmlns="http://www.w3.org/2000/svg" xmlns:xlink="http://www.w3.org/1999/xlink">
    <title>03324E11-E6B1-49BF-B33F-640532CB3708</title>
    <g id="Design" stroke="none" stroke-width="1" fill="none" fill-rule="evenodd">
        <g id="Player---Single-track---Loop-one-veda" transform="translate(-321.000000, -628.000000)">
            <g id="icon/broadcast" transform="translate(321.000000, 628.000000)">
                <rect id="Rectangle" x="0" y="0" width="24" height="24"></rect>
                <path d="M15.8218993,5 C18.3330742,5 20.3687837,7.03570947 20.3687837,9.54688436 C20.3687837,10.5708806 20.0302837,11.515816 19.4590768,12.2758975 L19.4594068,12.275015 L19.4514639,12.2859985 C19.3042698,12.4807377 19.1417649,12.663259 18.9657401,12.8317716 L12.9318012,19.6185714 C12.9057702,19.6478562 12.8780406,19.6755859 12.8487557,19.7016168 C12.4359729,20.0685349 11.8039006,20.0313541 11.4369825,19.6185714 L11.4369825,19.6185714 L5.40304357,12.8317716 C5.22641074,12.6626769 5.06339143,12.4794766 4.91579508,12.2839801 L4.90937687,12.275015 C4.33849996,11.515816 4,10.5708806 4,9.54688436 C4,7.03570947 6.03570947,5 8.54688436,5 C10.0345171,5 11.3552882,5.71441953 12.1848216,6.81888252 C13.0134955,5.71441953 14.3342666,5 15.8218993,5 Z" id="Combined-Shape" stroke="#FFFFFF" stroke-width="1.5"></path>
            </g>
        </g>
    </g>
</svg>