<?xml version="1.0" encoding="UTF-8"?>
<svg width="24px" height="24px" viewBox="0 0 23 22" version="1.1" xmlns="http://www.w3.org/2000/svg">
    <g id="Design" stroke="none" stroke-width="1" fill="none" fill-rule="evenodd">
        <g id="Vedic---List" transform="translate(-224.000000, -1595.000000)" fill="#FFFFFF">
            <g id="tabbar" transform="translate(0.000000, 1585.000000)">
                <g id="#2-copy" transform="translate(188.000000, 1.000000)">
                    <g id="Icon-2" transform="translate(32.000000, 6.000000)">
                        <path d="M20.5506591,3 C24.0663039,3 26.9162972,5.84999326 26.9162972,9.36563811 C26.9162972,10.7989807 26.4425639,12.121677 25.6431294,13.185695 L25.6431696,13.185021 C25.4310797,13.4672467 25.2016506,13.7254262 24.9529306,13.9636239 L16.2055579,23.8023341 C16.1795269,23.8316189 16.1517973,23.8593486 16.1225124,23.8853796 C15.7097297,24.2522976 15.0776573,24.2151169 14.7107393,23.8023341 L14.7107393,23.8023341 L5.96572313,13.9658796 C4.75440118,12.8069859 4,11.1744119 4,9.36563811 C4,5.84999326 6.84999326,3 10.3656381,3 C12.4482755,3 14.2973176,4.00014089 15.4586693,5.5463278 C16.6189796,4.00014089 18.4680216,3 20.5506591,3 Z"
                              id="Combined-Shape"/>
                    </g>
                </g>
            </g>
        </g>
    </g>
</svg>