<?xml version="1.0" encoding="UTF-8"?>
<svg width="24px" height="24px" viewBox="0 0 17 22" version="1.1" xmlns="http://www.w3.org/2000/svg">
    <g id="Design" stroke="none" stroke-width="1" fill="none" fill-rule="evenodd">
        <g id="Vedic---List" transform="translate(-133.000000, -1594.000000)" fill="#FFFFFF">
            <g id="tabbar" transform="translate(0.000000, 1585.000000)">
                <g id="#2" transform="translate(94.000000, 1.000000)">
                    <g id="Icon-2" transform="translate(32.000000, 6.000000)">
                        <path d="M19.9176559,19.0145374 C20.746083,19.0145374 21.4176559,19.6861103 21.4176559,20.5145374 L21.4176559,21.5145374 C21.4176559,22.3429645 20.746083,23.0145374 19.9176559,23.0145374 L10.9176559,23.0145374 C10.0892287,23.0145374 9.41765587,22.3429645 9.41765587,21.5145374 L9.41765587,20.5145374 C9.41765587,19.6861103 10.0892287,19.0145374 10.9176559,19.0145374 L19.9176559,19.0145374 Z M15.3670106,2.01453742 C17.8118198,2.01453742 19.7084654,2.31139537 21.0569473,2.90511128 C22.0126996,3.32591657 22.6808577,4.21345162 22.8209553,5.24830051 L23.2446392,8.37789592 C23.5333403,10.5104232 22.9430191,12.6687157 21.609153,14.3574496 L20.1224646,16.2396636 C19.7431735,16.7198629 19.1649209,17 18.5529952,17 L12.1810261,17 C11.5691004,17 10.9908477,16.7198629 10.6115567,16.2396636 L9.12486822,14.3574496 C7.79100218,12.6687157 7.20068094,10.5104232 7.48938201,8.37789592 L7.91306772,5.24828741 C8.05317542,4.2134402 8.72133458,3.32590597 9.67708842,2.90510492 C11.0255694,2.31139325 12.9222101,2.01453742 15.3670106,2.01453742 Z M15.3670106,4 C13.6419372,4 12.2434889,4.67157288 12.2434889,5.5 C12.2434889,6.32842712 13.6419372,7 15.3670106,7 C17.0920841,7 18.4905324,6.32842712 18.4905324,5.5 C18.4905324,4.67157288 17.0920841,4 15.3670106,4 Z"
                              id="Combined-Shape"/>
                    </g>
                </g>
            </g>
        </g>
    </g>
</svg>