<?xml version="1.0" encoding="UTF-8"?>
<svg width="24px" height="24px" viewBox="0 0 24 24" version="1.1" xmlns="http://www.w3.org/2000/svg" xmlns:xlink="http://www.w3.org/1999/xlink">
    <!-- Generator: sketchtool 62 (101010) - https://sketch.com -->
    <title>0A79EE3C-2ACB-4862-8FA3-A8B405C453D9</title>
    <desc>Created with sketchtool.</desc>
    <g id="Asset-Artboard-Page" stroke="none" stroke-width="1" fill="none" fill-rule="evenodd">
        <g id="icon/loop-icon/loop/on">
            <rect id="Rectangle" x="0" y="0" width="24" height="24"></rect>
            <path d="M10.2267402,2 C7.87294577,2 5.94102592,3.93191986 5.94102592,6.28571429 L5.94102592,13.8928571 L4.45777624,12.4096075 C4.12491586,12.0767471 3.58524257,12.0767471 3.2523822,12.4096075 C3.25127227,12.4107174 3.25016541,12.4118304 3.24906163,12.4129464 C2.91567419,12.7500382 2.91717439,13.2931128 3.25241909,13.6283575 L6.09106199,16.4670004 C6.48158628,16.8575247 7.11475126,16.8575247 7.50527555,16.4670004 L10.3472759,13.625 C10.6801261,13.2921498 10.6801261,12.752493 10.3472759,12.4196429 C10.0141127,12.0864797 9.47421676,12.0856117 9.13998403,12.4177019 L7.65531163,13.8928571 L7.65531163,13.8928571 L7.65531163,6.28571429 C7.65531163,4.86774543 8.80877134,3.71428571 10.2267402,3.71428571 L14.0838831,3.71428571 C14.55727,3.71428571 14.9410259,3.33052979 14.9410259,2.85714286 C14.9410259,2.38375593 14.55727,2 14.0838831,2 L10.2267402,2 L10.2267402,2 Z M17.2339191,5.53299964 L14.3818834,8.38503539 C14.049023,8.71789577 14.049023,9.25756906 14.3818834,9.59042943 C14.3829933,9.59153936 14.3841063,9.59264622 14.3852223,9.59375 C14.7223141,9.92713744 15.2653887,9.92563724 15.6006334,9.59039254 L17.0838831,8.10714286 L17.0838831,8.10714286 L17.0838831,15.7142857 C17.0838831,17.1322546 15.9304233,18.2857143 14.5124545,18.2857143 L10.6553116,18.2857143 C10.1819247,18.2857143 9.79816877,18.6694702 9.79816877,19.1428571 C9.79816877,19.6162441 10.1819247,20 10.6553116,20 L14.5124545,20 L14.5124545,20 C16.8662493,20 18.7981688,18.0680806 18.7981688,15.7142857 L18.7981688,8.10714286 L20.2814185,9.59039254 C20.6142788,9.92325291 21.1539521,9.92325291 21.4868125,9.59039254 C21.4879224,9.58928261 21.4890293,9.58816962 21.4901331,9.58705357 C21.8235205,9.24996183 21.8220203,8.70688724 21.4867756,8.37164254 L18.6481327,5.53299964 C18.2576084,5.14247535 17.6244434,5.14247535 17.2339191,5.53299964 Z" id="Shape" fill="#FFFFFF" fill-rule="nonzero"></path>
            <circle id="Oval" fill="#FFFFFF" cx="12" cy="22" r="1"></circle>
        </g>
    </g>
</svg>