<?xml version="1.0" encoding="UTF-8"?>
<svg width="24px" height="24px" viewBox="0 0 24 24" version="1.1" xmlns="http://www.w3.org/2000/svg">
    <path d="M12.0097275,17.9416342 C12.5394231,17.9416342 13.0068016,18.1441649 13.411863,18.5492263 C13.8169243,18.9542876 14.019455,19.4216661 14.019455,19.9513617 C14.019455,20.4810574 13.8169243,20.9484358 13.411863,21.3534972 C13.0068016,21.7585586 12.5394231,21.9610892 12.0097275,21.9610892 C11.4800319,21.9610892 11.0126534,21.7585586 10.607592,21.3534972 C10.2025307,20.9484358 10,20.4810574 10,19.9513617 C10,19.4216661 10.2025307,18.9542876 10.607592,18.5492263 C11.0126534,18.1441649 11.4800319,17.9416342 12.0097275,17.9416342 Z M12.0097275,10.4708171 C12.5394231,10.4708171 13.0068016,10.6733478 13.411863,11.0784092 C13.8169243,11.4834705 14.019455,11.950849 14.019455,12.4805446 C14.019455,13.0102402 13.8169243,13.4776187 13.411863,13.8826801 C13.0068016,14.2877414 12.5394231,14.4902721 12.0097275,14.4902721 C11.4800319,14.4902721 11.0126534,14.2877414 10.607592,13.8826801 C10.2025307,13.4776187 10,13.0102402 10,12.4805446 C10,11.950849 10.2025307,11.4834705 10.607592,11.0784092 C11.0126534,10.6733478 11.4800319,10.4708171 12.0097275,10.4708171 Z M12.0097275,7.019455 C11.4800319,7.019455 11.0126534,6.81692432 10.607592,6.41186297 C10.2025307,6.00680161 10,5.53942312 10,5.0097275 C10,4.48003188 10.2025307,4.01265339 10.607592,3.60759203 C11.0126534,3.20253068 11.4800319,3 12.0097275,3 C12.5394231,3 13.0068016,3.20253068 13.411863,3.60759203 C13.8169243,4.01265339 14.019455,4.48003188 14.019455,5.0097275 C14.019455,5.53942312 13.8169243,6.00680161 13.411863,6.41186297 C13.0068016,6.81692432 12.5394231,7.019455 12.0097275,7.019455 Z"
          fill="#FFFFFF"
          transform="translate(12.009728, 12.480545) rotate(90.000000) translate(-12.009728, -12.480545) "/>
</svg>
