<?xml version="1.0" encoding="UTF-8"?>
<svg width="24px" height="24px" viewBox="0 0 24 24" version="1.1" xmlns="http://www.w3.org/2000/svg" xmlns:xlink="http://www.w3.org/1999/xlink">
    <!-- Generator: Sketch 63.1 (92452) - https://sketch.com -->
    <title>icon/player/previous</title>
    <desc>Created with Sketch.</desc>
    <g id="icon/player/previous" stroke="none" stroke-width="1" fill="none" fill-rule="evenodd">
        <g transform="translate(1.000000, 3.000000)" fill="#FFFFFF">
            <path d="M2,0 C3.1045695,-2.02906125e-16 4,0.8954305 4,2 L4,16 C4,17.1045695 3.1045695,18 2,18 C0.8954305,18 1.3527075e-16,17.1045695 0,16 L0,2 C-1.3527075e-16,0.8954305 0.8954305,2.02906125e-16 2,0 Z" id="Rectangle"></path>
            <path d="M19.3995122,6.86252312 C21.5338653,7.9984295 21.5331265,10.0017935 19.3995122,11.1373067 L7.51418269,17.4626994 C5.10698388,18.7438147 3,17.6459092 3,15.104418 L3,2.89541183 C3,0.357469837 5.10505543,-0.74501121 7.51418269,0.537130437 L19.3995122,6.86252312 Z" id="Path" fill-rule="nonzero" transform="translate(12.000000, 9.000000) rotate(-180.000000) translate(-12.000000, -9.000000) "></path>
        </g>
    </g>
</svg>
