<?xml version="1.0" encoding="UTF-8"?>
<svg width="24px" height="24px" viewBox="0 0 24 24" version="1.1" xmlns="http://www.w3.org/2000/svg" xmlns:xlink="http://www.w3.org/1999/xlink">
    <!-- Generator: Sketch 62 (91390) - https://sketch.com -->
    <title>icon/player/pause</title>
    <desc>Created with Sketch.</desc>
    <g id="icon/player/pause" stroke="none" stroke-width="1" fill="none" fill-rule="evenodd">
        <rect id="Rectangle" x="0" y="0" width="24" height="24"></rect>
        <path d="M18,2 C19.1045695,2 20,2.8954305 20,4 L20,20 C20,21.1045695 19.1045695,22 18,22 C16.8954305,22 16,21.1045695 16,20 L16,4 C16,2.8954305 16.8954305,2 18,2 Z" id="Rectangle" fill="#FFFFFF"></path>
        <path d="M6,2 C7.1045695,2 8,2.8954305 8,4 L8,20 C8,21.1045695 7.1045695,22 6,22 C4.8954305,22 4,21.1045695 4,20 L4,4 C4,2.8954305 4.8954305,2 6,2 Z" id="Rectangle" fill="#FFFFFF"></path>
    </g>
</svg>