<?xml version="1.0" encoding="UTF-8"?>
<svg width="26px" height="26px" viewBox="0 0 26 26" version="1.1" xmlns="http://www.w3.org/2000/svg">
    <g stroke="none" stroke-width="1" fill="none" fill-rule="evenodd">
        <g transform="translate(-338.000000, -364.000000)">
            <g transform="translate(0.000000, 129.000000)">
                <g transform="translate(339.000000, 236.000000)">
                    <circle id="Oval" stroke="#EDC053" stroke-width="1.5" cx="12" cy="12" r="11.5"/>
                    <path d="M14.3320503,8.74807544 L18.4635332,14.9452998 C18.7698857,15.4048285 18.6457118,16.0256978 18.1861831,16.3320503 C18.0219156,16.441562 17.8289079,16.5 17.6314829,16.5 L9.36851709,16.5 C8.81623234,16.5 8.36851709,16.0522847 8.36851709,15.5 C8.36851709,15.302575 8.42695512,15.1095673 8.5364668,14.9452998 L12.6679497,8.74807544 C12.9743022,8.28854675 13.5951715,8.16437288 14.0547002,8.47072534 C14.1645525,8.5439602 14.2588154,8.63822315 14.3320503,8.74807544 Z"
                          id="Triangle" fill="#EDC053"
                          transform="translate(13.500000, 12.000000) rotate(-270.000000) translate(-13.500000, -12.000000) "/>
                </g>
            </g>
        </g>
    </g>
</svg>
