<?xml version="1.0" encoding="UTF-8"?>
<svg width="24px" height="24px" viewBox="0 0 24 24" version="1.1" xmlns="http://www.w3.org/2000/svg" xmlns:xlink="http://www.w3.org/1999/xlink">
    <!-- Generator: sketchtool 62 (101010) - https://sketch.com -->
    <title>634B6661-02BE-4E5C-B8B2-593234DF388F</title>
    <desc>Created with sketchtool.</desc>
    <g id="Asset-Artboard-Page" stroke="none" stroke-width="1" fill="none" fill-rule="evenodd">
        <g id="icon/download-copy-icon/favourite">
            <circle id="Oval" fill="#FFFFFF" cx="12" cy="12" r="11.5"></circle>
            <path d="M14.0931396,8 C15.5998445,8 16.8212702,9.22142568 16.8212702,10.7281306 C16.8212702,11.50279 16.4983969,12.2020383 15.9798807,12.6986449 L12.6580444,16.4348086 C12.6320134,16.4640935 12.6042838,16.4918231 12.574999,16.5178541 C12.1622162,16.8847721 11.5301438,16.8475914 11.1632258,16.4348086 L11.1632258,16.4348086 L7.84240846,12.6996203 C7.32329639,12.2029541 7,11.5032973 7,10.7281306 C7,9.22142568 8.22142568,8 9.72813062,8 C10.6205316,8 11.4128557,8.42848016 11.9105941,9.09093166 C12.4084145,8.42848016 13.2007386,8 14.0931396,8 Z" id="Combined-Shape" fill="#EDC053"></path>
        </g>
    </g>
</svg>
