<?xml version="1.0" encoding="UTF-8"?>
<svg width="24px" height="24px" viewBox="0 0 24 24" version="1.1" xmlns="http://www.w3.org/2000/svg" xmlns:xlink="http://www.w3.org/1999/xlink">
    <title>A05A9C85-12CA-4992-85C1-B491C69C7362</title>
    <g id="Design" stroke="none" stroke-width="1" fill="none" fill-rule="evenodd">
        <g id="[Offline]-Big-Player---List-" transform="translate(-321.000000, -628.000000)">
            <g id="icon/broadcast" transform="translate(321.000000, 628.000000)">
                <rect id="Rectangle" x="0" y="0" width="24" height="24"></rect>
                <path d="M18.964663,12.3527341 L12.4774273,19.6491985 C12.4513963,19.6784833 12.4236667,19.706213 12.3943818,19.732244 C11.981599,20.099162 11.3495267,20.0619812 10.9826087,19.6491985 L10.9826087,19.6491985 L4.50127045,12.3583743 C3.57626708,11.4752011 3,10.2299027 3,8.85000999 C3,6.17142344 5.17142344,4 7.85000999,4 C9.43676405,4 10.8455445,4.76199547 11.7303857,5.94002069 C12.6144914,4.76199547 14.0232719,4 15.610026,4 C18.2886125,4 20.460036,6.17142344 20.460036,8.85000999 C20.460036,9.94229779 20.0989527,10.9502501 19.4896399,11.7610133 L19.490034,11.760016 L19.4835359,11.7691177 C19.3263442,11.9773749 19.1527459,12.1725544 18.964663,12.3527341 Z" id="Combined-Shape" fill="#FFFFFF"></path>
            </g>
        </g>
    </g>
</svg>