<?xml version="1.0" encoding="UTF-8"?>
<svg width="24px" height="24px" viewBox="0 0 24 24" version="1.1" xmlns="http://www.w3.org/2000/svg">
    <g id="Design" stroke="none" stroke-width="1" fill="#FFFFFF" fill-rule="evenodd">
        <path d="M12.4315385,-7.10542736e-15 C13.2138462,-7.10542736e-15 13.9052885,0.492457933 14.167402,1.21801194 L14.214,1.36615385 L14.8453846,3.71215385 C15.0773846,3.79184615 15.3046667,3.88138462 15.5272308,3.97981197 L15.8575385,4.134 L17.8532308,3.01569231 C18.5282462,2.62713846 19.3685046,2.70617026 19.957481,3.19837675 L20.0796923,3.31015385 L20.6898462,3.92030769 C21.2408,4.47126154 21.3824656,5.30324923 21.0604321,5.99974564 L20.9843077,6.14676923 L19.866,8.14246154 C19.9730769,8.36030769 20.0717436,8.58287179 20.1610427,8.81015385 L20.2878462,9.15461538 L22.6338462,9.786 C23.3893269,9.98936538 23.9290024,10.6446238 23.9931307,11.4133118 L23.9995387,11.5684615 L23.9995387,12.4310769 C23.9995387,13.2133846 23.5070806,13.9048269 22.7815265,14.1669404 L22.6333846,14.2135385 L20.2873846,14.8449231 C20.2076923,15.0769231 20.1181538,15.3042051 20.0197265,15.5267692 L19.8655385,15.8570769 L20.9838462,17.8527692 C21.3724,18.5277846 21.2933682,19.3680431 20.8011617,19.9570195 L20.6893846,20.0792308 L20.0792308,20.6893846 C19.5282769,21.2403385 18.6962892,21.3820041 17.9997928,21.0599706 L17.8527692,20.9838462 L15.8570769,19.8655385 C15.6392308,19.9726154 15.4168718,20.0712821 15.1895897,20.1605812 L14.8449231,20.2873846 L14.2135385,22.6333846 C14.0101731,23.3888654 13.3553203,23.9285409 12.5863027,23.9930492 L12.4310769,23.9995385 L11.5684615,23.9995385 C10.7861538,23.9995385 10.0947115,23.5070805 9.83259803,22.7815265 L9.786,22.6333846 L9.15461538,20.2873846 C8.92261538,20.2076923 8.69533333,20.1181538 8.47276923,20.0197265 L8.14246154,19.8655385 L6.14676923,20.9838462 C5.47175385,21.3728308 4.63149538,21.2934256 4.04251897,20.8011675 L3.92030769,20.6893846 L3.31015385,20.0792308 C2.7592,19.5282769 2.61753436,18.6962892 2.93956786,17.9997928 L3.01569231,17.8527692 L4.134,15.8570769 C4.02692308,15.6392308 3.92825641,15.4168718 3.83895726,15.1895897 L3.71215385,14.8449231 L1.36615385,14.2135385 C0.610673077,14.0101731 0.0709975962,13.3553203 0.00648925781,12.5863027 L6.21724894e-13,12.4310769 L6.21724894e-13,11.5684615 C6.21724894e-13,10.7861538 0.492457933,10.0947115 1.21801194,9.83259803 L1.36615385,9.786 L3.71261538,9.15461538 C3.79230769,8.92261538 3.88184615,8.69533333 3.9802735,8.47276923 L4.13446154,8.14246154 L3.01615385,6.14676923 C2.62716923,5.47175385 2.70657436,4.63149538 3.19883255,4.04251897 L3.31061538,3.92030769 L3.92076923,3.31015385 C4.47172308,2.7592 5.30371077,2.61753436 6.00020718,2.93956786 L6.14723077,3.01569231 L8.14292308,4.134 C8.36076923,4.02692308 8.58312821,3.92825641 8.81041026,3.83895726 L9.15507692,3.71215385 L9.78646154,1.36615385 C9.98982692,0.610673077 10.6446797,0.0709975962 11.4136973,0.00648925781 L11.5689231,-7.10542736e-15 L12.4315385,-7.10542736e-15 Z M12,7.38461538 C9.45099346,7.38461538 7.38461538,9.45099346 7.38461538,12 C7.38461538,14.5490065 9.45099346,16.6153846 12,16.6153846 C14.5490065,16.6153846 16.6153846,14.5490065 16.6153846,12 C16.6153846,9.45099346 14.5490065,7.38461538 12,7.38461538 Z M12,10.1538462 C13.0196026,10.1538462 13.8461538,10.9803974 13.8461538,12 C13.8461538,13.0196026 13.0196026,13.8461538 12,13.8461538 C10.9803974,13.8461538 10.1538462,13.0196026 10.1538462,12 C10.1538462,10.9803974 10.9803974,10.1538462 12,10.1538462 Z"
              id="Combined-Shape"/>
    </g>
</svg>