<?xml version="1.0" encoding="UTF-8"?>
<svg width="24px" height="24px" viewBox="0 0 16 21" version="1.1" xmlns="http://www.w3.org/2000/svg">
    <g id="Design" stroke="none" stroke-width="1" fill="none" fill-rule="evenodd">
        <g id="Vedic---List" transform="translate(-39.000000, -1594.000000)" fill="#FFFFFF">
            <g id="tabbar" transform="translate(0.000000, 1585.000000)">
                <g id="#1" transform="translate(0.000000, 1.000000)">
                    <g id="Icon-1" transform="translate(32.000000, 6.000000)">
                        <path d="M15.7703277,14.4335678 L23,21 L23,21 C23,22.3333333 22.3333333,23 21,23 L9,23 C7.66666667,23 7,22.3333333 7,21 L14.4355474,14.4247018 C14.8176281,14.0868256 15.3927691,14.0906458 15.7703277,14.4335678 Z M15,8.68181818 C16.2135018,8.68181818 17.7522951,8.94026572 18.5077334,9.08259915 L18.9687501,9.17400568 L18.9779412,9.18146307 C19.3864381,9.24443677 19.735385,9.48417776 19.9486101,9.82212332 L20.0220588,9.9533028 L20.0312499,9.96076018 L22.2463238,14.0343574 C22.4209558,14.2729937 22.5294118,14.565696 22.5294118,14.8863636 C22.5294118,15.6768466 21.8970588,16.3181818 21.1176471,16.3181818 C21.0621987,16.3181818 21.0078042,16.3139063 20.95431,16.3064457 L16.4267666,12.328354 C15.6717647,11.6651995 14.541922,11.6652345 13.7869611,12.3284358 L9.323,16.25 L9.25,16.2678443 C9.13051482,16.2958097 9.00919106,16.3181818 8.88235294,16.3181818 C8.10294118,16.3181818 7.47058824,15.6768466 7.47058824,14.8863636 C7.47058824,14.6191406 7.5459049,14.371338 7.67207092,14.1569814 L7.75367671,14.0324931 L9.96875012,9.96076018 L9.97794118,9.9533028 C10.1560456,9.59203364 10.4793938,9.31914871 10.8718128,9.21321073 L11.0220588,9.18146307 L11.0312499,9.17400568 L11.5596724,9.0699819 L11.9647488,8.99751887 C12.7860694,8.8563236 14.0028542,8.68181818 15,8.68181818 Z M15,2 C16.5588235,2 17.8235294,3.28267045 17.8235294,4.86363636 C17.8235294,6.44460227 16.5588235,7.72727273 15,7.72727273 C13.4411765,7.72727273 12.1764706,6.44460227 12.1764706,4.86363636 C12.1764706,3.28267045 13.4411765,2 15,2 Z"
                              id="Shape"/>
                    </g>
                </g>
            </g>
        </g>
    </g>
</svg>